<?xml version="1.0" encoding="iso-8859-1"?>
<!-- Generator: Adobe Illustrator 27.7.0, SVG Export Plug-In . SVG Version: 6.00 Build 0)  -->
<svg version="1.1" id="Layer_1" xmlns="http://www.w3.org/2000/svg" xmlns:xlink="http://www.w3.org/1999/xlink" x="0px" y="0px"
	 viewBox="0 0 744.35 301.22" style="enable-background:new 0 0 744.35 301.22;" xml:space="preserve">
<path d="M631.51,141.81c1.55-8.71,6.84-13.28,15.04-13.28c8.61,0,14,5.29,14.62,13.28H631.51z M647.59,174.38
	c12.86,0,22.3-7.05,24.16-17.84h-10.06c-1.45,5.91-6.43,9.23-14.1,9.23c-9.13,0-15.56-6.74-16.39-16.59h39.93
	c0.1-0.93,0.21-2.59,0.21-3.94c0-13.28-8.61-24.79-24.79-24.79c-16.08,0-25.2,12.03-25.2,26.66
	C621.34,161.62,631.4,174.38,647.59,174.38 M588.05,173.55h9.96l19.19-52.28h-10.48l-13.69,39.62l-13.79-39.62h-10.37L588.05,173.55
	z M526.86,158.41c0-5.5,4.46-9.02,11.3-9.02h13.48v1.24c0,9.65-5.5,15.76-15.04,15.76C530.8,166.39,526.86,163.18,526.86,158.41
	 M534.63,174.38c7.88,0,14.52-3.63,17.01-9.34v8.51h10.06v-33.71c0-11.62-8.92-19.39-22.4-19.39c-12.34,0-21.68,7.68-22.51,17.94
	h9.33c0.31-5.29,5.6-9.85,12.86-9.85c8.09,0,12.65,4.36,12.65,10.68c0,1.87-1.14,3.11-3.53,3.11h-10.89
	c-12.34,0-20.33,6.22-20.33,16.28C516.9,167.95,523.95,174.38,534.63,174.38 M504.66,129.99h7.57v-8.71h-6.33
	c-7.36,0-11.51,3.11-13.9,10.06v-10.06h-10.06v52.28h10.06V149.9C492.01,138.49,495.12,129.99,504.66,129.99 M425.83,147.41
	c0-10.99,6.33-18.15,16.08-18.15c9.75,0,16.08,7.16,16.08,18.15c0,10.99-6.33,18.15-16.08,18.15
	C432.16,165.56,425.83,158.41,425.83,147.41 M422.62,194.71h25.2c11.51,0,19.4-7.68,19.4-18.67v-54.76h-10.06v6.95
	c-3.11-4.56-9.65-7.78-16.49-7.78c-15.97,0-25,11.41-25,26.97s9.02,26.97,25.1,26.97c7.26,0,13.9-3.01,16.39-7.47v8.51
	c0,6.33-4.36,10.89-10.37,10.89h-24.17V194.71z M404.57,129.99h7.57v-8.71h-6.33c-7.36,0-11.51,3.11-13.9,10.06v-10.06h-10.06v52.28
	h10.06V149.9C391.92,138.49,395.03,129.99,404.57,129.99 M333.01,158.41c0-5.5,4.46-9.02,11.3-9.02h13.48v1.24
	c0,9.65-5.5,15.76-15.04,15.76C336.95,166.39,333.01,163.18,333.01,158.41 M340.79,174.38c7.88,0,14.52-3.63,17.01-9.34v8.51h10.06
	v-33.71c0-11.62-8.92-19.39-22.4-19.39c-12.34,0-21.68,7.68-22.51,17.94h9.34c0.31-5.29,5.6-9.85,12.86-9.85
	c8.09,0,12.65,4.36,12.65,10.68c0,1.87-1.14,3.11-3.53,3.11h-10.89c-12.34,0-20.33,6.22-20.33,16.28
	C323.05,167.95,330.1,174.38,340.79,174.38 M299.71,100.95v30.49h-35.99v-30.49h-10.78v72.6h10.78v-32.57h35.99v32.57h10.79v-72.6
	H299.71z M665.36,222.42c3.61,0,5.98-1.87,5.98-4.78c0-7.27-9.14-3.22-9.14-7.18c0-1.23,1.11-2.06,2.78-2.06
	c1.36,0,3.1,0.73,3.32,2.56h2.91c-0.19-3-2.63-5-6.23-5c-3.32,0-5.66,1.83-5.66,4.59c0,6.8,9.05,2.91,9.05,7.15
	c0,1.17-1.2,2.15-3.01,2.15c-2.09,0-3.38-1.04-3.57-2.88h-2.88C659.12,220.33,661.59,222.42,665.36,222.42 M644.36,212.49
	c0.48-2.66,2.09-4.05,4.59-4.05c2.62,0,4.27,1.61,4.46,4.05H644.36z M649.26,222.42c3.92,0,6.8-2.15,7.37-5.44h-3.07
	c-0.44,1.8-1.96,2.82-4.3,2.82c-2.78,0-4.74-2.06-5-5.06h12.18c0.03-0.28,0.06-0.79,0.06-1.2c0-4.05-2.62-7.56-7.56-7.56
	c-4.9,0-7.69,3.67-7.69,8.13C641.26,218.53,644.32,222.42,649.26,222.42 M634.61,203.41h3.42v-3.86h-3.42V203.41z M634.8,222.17
	h3.07v-15.94h-3.07V222.17z M617.69,214.2c0-3.35,1.93-5.54,4.9-5.54c2.97,0,4.9,2.18,4.9,5.54c0,3.35-1.93,5.53-4.9,5.53
	C619.62,219.73,617.69,217.55,617.69,214.2 M616.71,228.62h7.69c3.51,0,5.91-2.34,5.91-5.69v-16.7h-3.07v2.12
	c-0.95-1.39-2.94-2.37-5.03-2.37c-4.87,0-7.62,3.48-7.62,8.23c0,4.74,2.75,8.22,7.65,8.22c2.21,0,4.24-0.92,5-2.28v2.59
	c0,1.93-1.33,3.32-3.16,3.32h-7.37V228.62z M598.91,214.2c0-3.26,2.06-5.54,5.09-5.54c3,0,5.06,2.28,5.06,5.54
	c0,3.26-2.06,5.53-5.06,5.53C600.96,219.73,598.91,217.46,598.91,214.2 M604,222.42c4.77,0,8.19-3.45,8.19-8.22
	c0-4.78-3.42-8.23-8.19-8.23c-4.78,0-8.22,3.45-8.22,8.23C595.78,218.97,599.22,222.42,604,222.42 M589.32,222.17h3.07v-22.61h-3.07
	V222.17z M572.62,214.2c0-3.26,2.06-5.54,5.09-5.54c3.01,0,5.06,2.28,5.06,5.54c0,3.26-2.06,5.53-5.06,5.53
	C574.68,219.73,572.62,217.46,572.62,214.2 M577.71,222.42c4.78,0,8.19-3.45,8.19-8.22c0-4.78-3.42-8.23-8.19-8.23
	c-4.77,0-8.22,3.45-8.22,8.23C569.49,218.97,572.94,222.42,577.71,222.42 M552.16,222.17h3.07v-8.63c0-2.78,1.77-4.81,4.27-4.81
	c2.25,0,3.73,1.71,3.73,4.24v9.2h3.07v-9.8c0-3.8-2.34-6.39-5.95-6.39c-2.37,0-4.27,1.08-5.12,3.07v-2.82h-3.07V222.17z
	 M533.75,222.17h3.07v-8.63c0-2.78,1.77-4.81,4.27-4.81c2.24,0,3.73,1.71,3.73,4.24v9.2h3.07v-9.8c0-3.8-2.34-6.39-5.95-6.39
	c-2.37,0-4.27,1.08-5.13,3.07v-9.49h-3.07V222.17z M523.06,222.42c4.08,0,6.9-2.28,7.4-5.63h-3.04c-0.51,1.8-2.09,2.94-4.27,2.94
	c-3.16,0-4.78-2.47-4.78-5.53c0-3.07,1.58-5.54,4.74-5.54c2.18,0,3.99,1.33,4.27,3.13h3.07c-0.44-3.61-3.67-5.82-7.4-5.82
	c-5,0-7.88,3.83-7.88,8.23C515.19,218.6,518.07,222.42,523.06,222.42 M500.51,212.49c0.48-2.66,2.09-4.05,4.59-4.05
	c2.63,0,4.27,1.61,4.46,4.05H500.51z M505.41,222.42c3.92,0,6.8-2.15,7.37-5.44h-3.07c-0.44,1.8-1.96,2.82-4.3,2.82
	c-2.78,0-4.74-2.06-5-5.06h12.18c0.03-0.28,0.06-0.79,0.06-1.2c0-4.05-2.63-7.56-7.56-7.56c-4.9,0-7.69,3.67-7.69,8.13
	C497.41,218.53,500.48,222.42,505.41,222.42 M488.87,222.17h3.29v-19.23h6.93v-2.91h-17.14v2.91h6.93V222.17z M107.72,107.71
	c2.41-2.41,5.95-3.36,9.25-2.48l48.32,12.95c3.3,0.88,5.89,3.47,6.77,6.77L185,173.27c0.88,3.3-0.07,6.84-2.48,9.25
	c-2.41,2.41-5.95,3.36-9.25,2.48l-48.32-12.94c-3.29-0.88-5.89-3.48-6.77-6.77l-12.95-48.32
	C104.36,113.67,105.3,110.13,107.72,107.71L107.72,107.71L107.72,107.71z M217.26,142.04l-12.95-48.32c-1.01-3.8-4-6.78-7.8-7.8
	L148.2,72.98c-3.79-1.02-7.87,0.08-10.65,2.85l-30.86,30.86v0c0,0-0.01,0.01-0.01,0.01l-30.85,30.85
	c-2.78,2.77-3.87,6.85-2.86,10.65l12.95,48.32c1.02,3.79,4,6.78,7.8,7.8l48.32,12.95c0.94,0.25,1.89,0.37,2.84,0.37
	c2.89,0,5.72-1.14,7.81-3.22l30.86-30.86l30.86-30.86C217.19,149.91,218.28,145.83,217.26,142.04"/>
</svg>
