<?xml version="1.0" encoding="UTF-8"?>
<svg id="Layer_1" data-name="Layer 1" xmlns="http://www.w3.org/2000/svg" width="7.42in" height="2in" viewBox="0 0 534.44 144">
  <g>
    <g>
      <path d="m454.6,109.77v-56.64c0-1.09.89-1.98,1.98-1.98h9.54c1.09,0,1.98.89,1.98,1.98v56.64c0,1.09-.89,1.98-1.98,1.98h-9.54c-1.09,0-1.98-.89-1.98-1.98Z"/>
      <circle cx="461.35" cy="34.16" r="7.75"/>
    </g>
    <path d="m215.15,42.72c0-5.3,4.14-8.53,11.12-8.53h27.38c.88,0,1.59-.71,1.59-1.59v-9.76c0-.88-.71-1.59-1.59-1.59h-27.38c-14.09,0-24.04,8.79-24.04,21.46,0,24.56,42.66,28.44,42.66,46.28,0,5.69-4.65,9.83-11.25,9.83h-8.66c-6.12,0-11.12-5-11.12-11.12v-3.19c0-1.09-.89-1.98-1.98-1.98h-8.96c-1.09,0-1.98.89-1.98,1.98v3.19c0,13.28,10.77,24.05,24.05,24.05h8.66c13.7,0,24.17-9.83,24.17-22.75,0-27.28-42.66-32.58-42.66-46.28Z"/>
    <path d="m431.36,23.24v27.91h-20.68c-12.8,0-23.27,10.34-23.27,23.27v14.07c0,12.8,10.47,23.27,23.27,23.27h31.63c1.09,0,1.98-.89,1.98-1.98V23.24c0-1.09-.89-1.98-1.98-1.98h-8.96c-1.09,0-1.98.89-1.98,1.98Zm0,75.58h-20.68c-5.69,0-10.34-4.65-10.34-10.34v-14.07c0-5.69,4.65-10.34,10.34-10.34h20.68v34.75Z"/>
    <path d="m364.17,53.13v45.69s-15.47,0-15.47,0c-5.82-.13-10.34-4.4-10.34-10.21v-35.48c0-1.09-.89-1.98-1.98-1.98h-8.96c-1.09,0-1.98.89-1.98,1.98v35.48c0,12.78,10.36,23.14,23.14,23.14h15.59v9.11c0,5.82-5.66,10.08-11.48,10.21h-12.32c-1.09,0-1.98.89-1.98,1.98v8.96c0,1.09.89,1.98,1.98,1.98h12.32c13.42,0,24.4-10.98,24.4-24.4V53.13c0-1.09-.89-1.98-1.98-1.98h-8.96c-1.09,0-1.98.89-1.98,1.98Z"/>
    <path d="m511.17,51.15h-10.35c-.06,0-.11,0-.17,0-12.85.09-23.1,10.26-23.1,23.13v14.32c0,12.93,10.34,23.14,23.27,23.14h10.34s0,0,0,0c.06,0,.11,0,.17,0,12.85-.09,23.1-10.26,23.1-23.13v-14.32c0-12.93-10.34-23.14-23.27-23.14Zm10.34,37.38c-.02,5.77-4.5,10.26-10.27,10.3-.02,0-.05,0-.07,0h-10.34s0,0,0,0c-2.55-.06-4.85-.91-6.63-2.34-2.28-1.88-3.7-4.73-3.7-8v-14.11c.02-5.77,4.5-10.26,10.27-10.3.02,0,.05,0,.07,0h10.35c2.55.06,4.85.91,6.63,2.34,2.28,1.88,3.7,4.73,3.7,8v14.11Z"/>
    <rect x="265.54" y="21.26" width="12.93" height="90.49" rx="1.98" ry="1.98"/>
    <path d="m299.89,81.45l17.61-27.87c.67-1.06-.09-2.43-1.34-2.43h-10.93c-.94,0-1.81.47-2.33,1.26l-16.25,24.99c-.29.45-.45.98-.45,1.51v5.08c0,.54.16,1.06.45,1.51l16.25,24.98c.51.79,1.39,1.26,2.33,1.26h10.84c1.29,0,2.07-1.42,1.38-2.51l-17.56-27.79Z"/>
  </g>
  <g>
    <path d="m4.16,127.78c0,7.89,5.24,13.34,12.77,15.04.99.22,3.75,1.18,21.06,1.18h106.05V52.15C9.56,92.44,4.16,119.76,4.16,127.78Z"/>
    <path d="m0,72C132.25,46.26,160.75,30.63,160.75,21.29c0-7.91-16.69-10.15-16.69-10.15V0H0v72Z"/>
  </g>
</svg>